<?xml version="1.0" encoding="UTF-8" standalone="no"?>


<svg width="128" height="128" viewBox="0 0 33.866666 33.866666" version="1.1" id="svg1" xmlns="http://www.w3.org/2000/svg" xmlns:svg="http://www.w3.org/2000/svg" xmlns:rdf="http://www.w3.org/1999/02/22-rdf-syntax-ns#" xmlns:cc="http://creativecommons.org/ns#" xmlns:dc="http://purl.org/dc/elements/1.1/">
  <defs id="defs1">
    <clipPath clipPathUnits="userSpaceOnUse" id="clipPath45">
      <path d="M 0,144 H 216 V 0 H 0 Z" transform="translate(-91.509805,-116.2539)" id="path45"></path>
    </clipPath>
    <clipPath clipPathUnits="userSpaceOnUse" id="clipPath47">
      <path d="M 0,144 H 216 V 0 H 0 Z" transform="translate(-119.7871,-111.4629)" id="path47"></path>
    </clipPath>
    <clipPath clipPathUnits="userSpaceOnUse" id="clipPath49">
      <path d="M 0,144 H 216 V 0 H 0 Z" transform="translate(-109.56741,-89.760702)" id="path49"></path>
    </clipPath>
    <clipPath clipPathUnits="userSpaceOnUse" id="clipPath51">
      <path d="M 0,144 H 216 V 0 H 0 Z" transform="translate(-110.2432,-108.2036)" id="path51"></path>
    </clipPath>
    <clipPath clipPathUnits="userSpaceOnUse" id="clipPath53">
      <path d="M 0,144 H 216 V 0 H 0 Z" transform="translate(-87.155305,-109.6157)" id="path53"></path>
    </clipPath>
    <clipPath clipPathUnits="userSpaceOnUse" id="clipPath55">
      <path d="M 0,144 H 216 V 0 H 0 Z" transform="translate(-114.89361,-95.727102)" id="path55"></path>
    </clipPath>
    <clipPath clipPathUnits="userSpaceOnUse" id="clipPath57">
      <path d="M 0,144 H 216 V 0 H 0 Z" transform="translate(-92.6704,-115.0947)" id="path57"></path>
    </clipPath>
  </defs>
  <metadata id="metadata1">
    <RDF>
      <Work xmlns:_="http://www.w3.org/1999/02/22-rdf-syntax-ns#" xmlns:_="http://www.w3.org/1999/02/22-rdf-syntax-ns#" _:about="">
        <format>image/svg+xml</format>
        <type _:resource="http://purl.org/dc/dcmitype/StillImage"></type>
      </Work>
    </RDF>
  </metadata>
  <g id="g3" transform="matrix(0.38525423,0,0,0.40287048,-7.7305788,-7.7316019)">
    <g id="g2">
      <g id="g1">
        <path id="path44" d="m 0,0 5.032,-5.032 c 3.193,-3.193 3.193,-8.418 0,-11.612 l -9.522,-9.521 c -3.193,-3.193 -8.419,-3.193 -11.612,0 l -5.031,5.032 c -3.194,3.193 -3.194,8.418 0,11.612 L -11.612,0 C -8.418,3.193 -3.193,3.193 0,0" style="fill:#4ebfe7;fill-opacity:1;fill-rule:evenodd;stroke:none" transform="matrix(1.3333333,0,0,-1.3333333,58.113304,42.708191)" clip-path="url(#clipPath45)"></path>
        <path id="path46" d="m 0,0 2.785,-2.785 c 1.768,-1.768 1.768,-4.66 0,-6.427 l -5.27,-5.271 c -1.768,-1.767 -4.661,-1.767 -6.428,0 l -2.785,2.785 c -1.768,1.768 -1.768,4.66 0,6.427 L -6.428,0 C -4.66,1.768 -1.768,1.768 0,0" style="fill:#7aca2a;fill-opacity:1;fill-rule:evenodd;stroke:none" transform="matrix(1.3333333,0,0,-1.3333333,95.816365,49.096191)" clip-path="url(#clipPath47)"></path>
        <path id="path48" d="m 0,0 -1.278,-1.279 c -3.194,-3.193 -8.419,-3.193 -11.612,0 l -3.078,3.078 7.084,7.085 z" style="fill:#a7a5a6;fill-opacity:1;fill-rule:evenodd;stroke:none" transform="matrix(1.3333333,0,0,-1.3333333,82.190105,78.032455)" clip-path="url(#clipPath49)"></path>
        <path id="path50" d="m 0,0 3.077,-3.078 c 3.194,-3.193 3.194,-8.418 0,-11.611 l -1.278,-1.279 -8.883,8.884 z" style="fill:#7aca2a;fill-opacity:1;fill-rule:evenodd;stroke:none" transform="matrix(1.3333333,0,0,-1.3333333,83.091165,53.441924)" clip-path="url(#clipPath51)"></path>
        <path id="path52" d="m 0,0 5.032,5.032 c 3.194,3.193 8.419,3.193 11.612,0 L 20.613,1.063 3.969,-15.581 0,-11.611 C -3.193,-8.418 -3.193,-3.193 0,0" style="fill:#4ebfe7;fill-opacity:1;fill-rule:evenodd;stroke:none" transform="matrix(1.3333333,0,0,-1.3333333,52.307304,51.559124)" clip-path="url(#clipPath53)"></path>
        <path id="path54" d="M 0,0 C -1.417,-0.252 -2.932,0.164 -4.02,1.253 L -6.804,4.039 C -8.34,5.573 -8.542,7.958 -7.41,9.717 l 2.761,2.76 3.076,-3.079 C 0.959,6.868 1.482,3.06 0,0" style="fill:#00a650;fill-opacity:1;fill-rule:evenodd;stroke:none" transform="matrix(1.3333333,0,0,-1.3333333,89.291705,70.077255)" clip-path="url(#clipPath55)"></path>
        <path id="path56" d="m 0,0 3.872,-3.874 c 3.192,-3.191 3.192,-8.418 0,-11.61 l -5.497,-5.496 -3.89,3.889 c -3.193,3.194 -3.193,8.419 0,11.612 l 5.032,5.032 C -0.327,-0.291 -0.166,-0.141 0,0" style="fill:#3284ba;fill-opacity:1;fill-rule:evenodd;stroke:none" transform="matrix(1.3333333,0,0,-1.3333333,59.660764,44.253791)" clip-path="url(#clipPath57)"></path>
      </g>
    </g>
  </g>
  <rect style="fill:none;stroke-width:0.264583" id="rect3" width="29.633333" height="29.633333" x="2.1166668" y="2.1166668"></rect>
</svg>