<?xml version="1.0" encoding="UTF-8" standalone="no"?>
<svg
   height="128px"
   version="1.1"
   viewBox="0,0,480,128"
   width="480px"
   id="svg2"
   xmlns="http://www.w3.org/2000/svg"
   xmlns:svg="http://www.w3.org/2000/svg">
  <defs
     id="defs1">
    <clipPath
       clipPathUnits="userSpaceOnUse"
       id="clipPath45">
      <path
         d="M 0,144 H 216 V 0 H 0 Z"
         transform="translate(-91.509805,-116.2539)"
         id="path45" />
    </clipPath>
    <clipPath
       clipPathUnits="userSpaceOnUse"
       id="clipPath47">
      <path
         d="M 0,144 H 216 V 0 H 0 Z"
         transform="translate(-119.7871,-111.4629)"
         id="path47" />
    </clipPath>
    <clipPath
       clipPathUnits="userSpaceOnUse"
       id="clipPath49">
      <path
         d="M 0,144 H 216 V 0 H 0 Z"
         transform="translate(-109.56741,-89.760702)"
         id="path49" />
    </clipPath>
    <clipPath
       clipPathUnits="userSpaceOnUse"
       id="clipPath51">
      <path
         d="M 0,144 H 216 V 0 H 0 Z"
         transform="translate(-110.2432,-108.2036)"
         id="path51" />
    </clipPath>
    <clipPath
       clipPathUnits="userSpaceOnUse"
       id="clipPath53">
      <path
         d="M 0,144 H 216 V 0 H 0 Z"
         transform="translate(-87.155305,-109.6157)"
         id="path53" />
    </clipPath>
    <clipPath
       clipPathUnits="userSpaceOnUse"
       id="clipPath55">
      <path
         d="M 0,144 H 216 V 0 H 0 Z"
         transform="translate(-114.89361,-95.727102)"
         id="path55" />
    </clipPath>
    <clipPath
       clipPathUnits="userSpaceOnUse"
       id="clipPath57">
      <path
         d="M 0,144 H 216 V 0 H 0 Z"
         transform="translate(-92.6704,-115.0947)"
         id="path57" />
    </clipPath>
    <clipPath
       clipPathUnits="userSpaceOnUse"
       id="clipPath5">
      <path
         d="M 0,144 H 216 V 0 H 0 Z"
         transform="translate(-136.7793,-64.384802)"
         id="path5" />
    </clipPath>
    <clipPath
       clipPathUnits="userSpaceOnUse"
       id="clipPath7">
      <path
         d="M 0,144 H 216 V 0 H 0 Z"
         transform="translate(-176.1748,-79.981002)"
         id="path7" />
    </clipPath>
    <clipPath
       clipPathUnits="userSpaceOnUse"
       id="clipPath9">
      <path
         d="M 0,144 H 216 V 0 H 0 Z"
         transform="translate(-50.128901,-39.490201)"
         id="path9" />
    </clipPath>
    <clipPath
       clipPathUnits="userSpaceOnUse"
       id="clipPath11">
      <path
         d="M 0,144 H 216 V 0 H 0 Z"
         transform="translate(-38.184601,-32.301803)"
         id="path11" />
    </clipPath>
    <clipPath
       clipPathUnits="userSpaceOnUse"
       id="clipPath13">
      <path
         d="M 0,144 H 216 V 0 H 0 Z"
         transform="translate(-66.200201,-31.278301)"
         id="path13" />
    </clipPath>
    <clipPath
       clipPathUnits="userSpaceOnUse"
       id="clipPath15">
      <path
         d="M 0,144 H 216 V 0 H 0 Z"
         transform="translate(-58.172902,-40.513704)"
         id="path15" />
    </clipPath>
    <clipPath
       clipPathUnits="userSpaceOnUse"
       id="clipPath17">
      <path
         d="M 0,144 H 216 V 0 H 0 Z"
         transform="translate(-74.344702,-41.981401)"
         id="path17" />
    </clipPath>
    <clipPath
       clipPathUnits="userSpaceOnUse"
       id="clipPath19">
      <path
         d="M 0,144 H 216 V 0 H 0 Z"
         transform="translate(-74.441402,-30.020498)"
         id="path19" />
    </clipPath>
    <clipPath
       clipPathUnits="userSpaceOnUse"
       id="clipPath21">
      <path
         d="M 0,144 H 216 V 0 H 0 Z"
         transform="translate(-102.2896,-41.964804)"
         id="path21" />
    </clipPath>
    <clipPath
       clipPathUnits="userSpaceOnUse"
       id="clipPath23">
      <path
         d="M 0,144 H 216 V 0 H 0 Z"
         transform="translate(-91.699705,-41.868204)"
         id="path23" />
    </clipPath>
    <clipPath
       clipPathUnits="userSpaceOnUse"
       id="clipPath25">
      <path
         d="M 0,144 H 216 V 0 H 0 Z"
         transform="translate(-121.20411,-41.964804)"
         id="path25" />
    </clipPath>
    <clipPath
       clipPathUnits="userSpaceOnUse"
       id="clipPath27">
      <path
         d="M 0,144 H 216 V 0 H 0 Z"
         transform="translate(-114.61131,-30.020498)"
         id="path27" />
    </clipPath>
    <clipPath
       clipPathUnits="userSpaceOnUse"
       id="clipPath29">
      <path
         d="M 0,144 H 216 V 0 H 0 Z"
         id="path29" />
    </clipPath>
    <clipPath
       clipPathUnits="userSpaceOnUse"
       id="clipPath31">
      <path
         d="M 0,144 H 216 V 0 H 0 Z"
         id="path31" />
    </clipPath>
    <clipPath
       clipPathUnits="userSpaceOnUse"
       id="clipPath33">
      <path
         d="M 0,144 H 216 V 0 H 0 Z"
         transform="translate(-144.6973,-31.278301)"
         id="path33" />
    </clipPath>
    <clipPath
       clipPathUnits="userSpaceOnUse"
       id="clipPath35">
      <path
         d="M 0,144 H 216 V 0 H 0 Z"
         transform="translate(-136.6699,-40.513704)"
         id="path35" />
    </clipPath>
    <clipPath
       clipPathUnits="userSpaceOnUse"
       id="clipPath37">
      <path
         d="M 0,144 H 216 V 0 H 0 Z"
         transform="translate(-163.51071,-41.964804)"
         id="path37" />
    </clipPath>
    <clipPath
       clipPathUnits="userSpaceOnUse"
       id="clipPath39">
      <path
         d="M 0,144 H 216 V 0 H 0 Z"
         transform="translate(-154.08201,-40.690404)"
         id="path39" />
    </clipPath>
    <clipPath
       clipPathUnits="userSpaceOnUse"
       id="clipPath41">
      <path
         d="M 0,144 H 216 V 0 H 0 Z"
         transform="translate(-182.9775,-39.490201)"
         id="path41" />
    </clipPath>
    <clipPath
       clipPathUnits="userSpaceOnUse"
       id="clipPath43">
      <path
         d="M 0,144 H 216 V 0 H 0 Z"
         transform="translate(-171.03321,-32.301803)"
         id="path43" />
    </clipPath>
  </defs>
  <g
     id="g28"
     transform="matrix(2.34375,0,0,2.34375,-53.906251,144.37234)">
    <path
       id="path44"
       d="m 0,0 5.032,-5.032 c 3.193,-3.193 3.193,-8.418 0,-11.612 l -9.522,-9.521 c -3.193,-3.193 -8.419,-3.193 -11.612,0 l -5.031,5.032 c -3.194,3.193 -3.194,8.418 0,11.612 L -11.612,0 C -8.418,3.193 -3.193,3.193 0,0"
       style="fill:#4ebfe7;fill-opacity:1;fill-rule:evenodd;stroke:none"
       transform="matrix(1.3333333,0,0,-1.3333333,54.371333,-52.807)"
       clip-path="url(#clipPath45)" />
    <path
       id="path46"
       d="m 0,0 2.785,-2.785 c 1.768,-1.768 1.768,-4.66 0,-6.427 l -5.27,-5.271 c -1.768,-1.767 -4.661,-1.767 -6.428,0 l -2.785,2.785 c -1.768,1.768 -1.768,4.66 0,6.427 L -6.428,0 C -4.66,1.768 -1.768,1.768 0,0"
       style="fill:#7aca2a;fill-opacity:1;fill-rule:evenodd;stroke:none"
       transform="matrix(1.3333333,0,0,-1.3333333,92.074393,-46.419)"
       clip-path="url(#clipPath47)" />
    <path
       id="path48"
       d="m 0,0 -1.278,-1.279 c -3.194,-3.193 -8.419,-3.193 -11.612,0 l -3.078,3.078 7.084,7.085 z"
       style="fill:#a7a5a6;fill-opacity:1;fill-rule:evenodd;stroke:none"
       transform="matrix(1.3333333,0,0,-1.3333333,78.448133,-17.482733)"
       clip-path="url(#clipPath49)" />
    <path
       id="path50"
       d="m 0,0 3.077,-3.078 c 3.194,-3.193 3.194,-8.418 0,-11.611 l -1.278,-1.279 -8.883,8.884 z"
       style="fill:#7aca2a;fill-opacity:1;fill-rule:evenodd;stroke:none"
       transform="matrix(1.3333333,0,0,-1.3333333,79.349193,-42.073267)"
       clip-path="url(#clipPath51)" />
    <path
       id="path52"
       d="m 0,0 5.032,5.032 c 3.194,3.193 8.419,3.193 11.612,0 L 20.613,1.063 3.969,-15.581 0,-11.611 C -3.193,-8.418 -3.193,-3.193 0,0"
       style="fill:#4ebfe7;fill-opacity:1;fill-rule:evenodd;stroke:none"
       transform="matrix(1.3333333,0,0,-1.3333333,48.565333,-43.956067)"
       clip-path="url(#clipPath53)" />
    <path
       id="path54"
       d="M 0,0 C -1.417,-0.252 -2.932,0.164 -4.02,1.253 L -6.804,4.039 C -8.34,5.573 -8.542,7.958 -7.41,9.717 l 2.761,2.76 3.076,-3.079 C 0.959,6.868 1.482,3.06 0,0"
       style="fill:#00a650;fill-opacity:1;fill-rule:evenodd;stroke:none"
       transform="matrix(1.3333333,0,0,-1.3333333,85.549733,-25.437933)"
       clip-path="url(#clipPath55)" />
    <path
       id="path56"
       d="m 0,0 3.872,-3.874 c 3.192,-3.191 3.192,-8.418 0,-11.61 l -5.497,-5.496 -3.89,3.889 c -3.193,3.194 -3.193,8.419 0,11.612 l 5.032,5.032 C -0.327,-0.291 -0.166,-0.141 0,0"
       style="fill:#3284ba;fill-opacity:1;fill-rule:evenodd;stroke:none"
       transform="matrix(1.3333333,0,0,-1.3333333,55.918793,-51.2614)"
       clip-path="url(#clipPath57)" />
  </g>
  <g
     id="g35">
    <g
       id="g34">
      <g
         id="g33">
        <g
           id="g32">
          <g
             id="g31">
            <g
               id="g30"
               transform="translate(0.8)">
              <path
                 id="path1"
                 d="M 230.5778,13.427751 V 25.426917 H 203.94369 V 78.876649 H 191.85376 V 25.426917 H 165.1289 V 13.427751 Z"
                 style="fill:#4ebfe7;fill-opacity:1;fill-rule:nonzero;stroke:none;stroke-width:2.01666" />
              <path
                 id="path2"
                 d="m 241.12235,13.427749 h 11.99916 v 65.448899 h -11.99916 z"
                 style="fill:#4ebfe7;fill-opacity:1;fill-rule:nonzero;stroke:none;stroke-width:2.01666" />
              <path
                 id="path3"
                 d="M 329.38761,13.427751 V 25.426917 H 302.7535 V 78.876649 H 290.66357 V 25.426917 H 263.93871 V 13.427751 Z"
                 style="fill:#4ebfe7;fill-opacity:1;fill-rule:nonzero;stroke:none;stroke-width:2.01666" />
              <path
                 id="path4"
                 d="m 0,0 v 9.331 c 0,0.18 -0.136,0.315 -0.315,0.315 h -19.878 c -0.181,0 -0.316,-0.135 -0.316,-0.315 V 0 Z m -0.315,15.596 c 3.47,0 6.31,-2.794 6.31,-6.265 V -16.857 H 0 v 10.908 h -20.509 v -10.908 h -5.95 V 9.331 c 0,3.471 2.795,6.265 6.266,6.265 z"
                 style="fill:#4ebfe7;fill-opacity:1;fill-rule:nonzero;stroke:none"
                 transform="matrix(2.0166666,0,0,-2.0166666,385.56469,44.880087)"
                 clip-path="url(#clipPath5)" />
              <path
                 id="path6"
                 d="m 0,0 h 5.995 v -32.454 h -6.491 l -20.013,23.799 v -23.799 h -5.95 V 0 h 6.491 L 0,-23.799 Z"
                 style="fill:#4ebfe7;fill-opacity:1;fill-rule:nonzero;stroke:none"
                 transform="matrix(2.0166666,0,0,-2.0166666,465.01228,13.427751)"
                 clip-path="url(#clipPath7)" />
              <path
                 id="path8"
                 d="m 0,0 h -1.354 v 0.468 c 0,0.351 -0.302,0.652 -0.653,0.652 h -8.027 c -0.352,0 -0.653,-0.301 -0.653,-0.652 v -2.693 c 0,-0.351 0.301,-0.635 0.653,-0.635 h 8.027 C -0.887,-2.86 0,-3.764 0,-4.867 V -7.56 c 0,-1.12 -0.887,-2.006 -2.007,-2.006 h -8.027 c -1.121,0 -2.007,0.886 -2.007,2.006 v 0.468 h 1.354 V -7.56 c 0,-0.351 0.301,-0.652 0.653,-0.652 h 8.027 c 0.351,0 0.653,0.301 0.653,0.652 v 2.693 c 0,0.351 -0.302,0.636 -0.653,0.636 h -8.027 c -1.121,0 -2.007,0.903 -2.007,2.006 v 2.693 c 0,1.12 0.886,2.007 2.007,2.007 h 8.027 C -0.887,2.475 0,1.588 0,0.468 Z"
                 style="fill:#7aca2a;fill-opacity:1;fill-rule:nonzero;stroke:none"
                 transform="matrix(2.0166666,0,0,-2.0166666,210.81971,95.084197)"
                 clip-path="url(#clipPath9)" />
              <path
                 id="path10"
                 d="m 0,0 v -0.371 c 0,-1.071 0.839,-1.91 1.91,-1.91 h 8.028 c 1.071,0 1.91,0.839 1.91,1.91 v 2.692 c 0,1.054 -0.857,1.91 -1.91,1.91 H 1.91 c -0.413,0 -0.749,0.33 -0.749,0.733 v 2.692 c 0,0.407 0.343,0.749 0.749,0.749 h 8.028 c 0.405,0 0.749,-0.342 0.749,-0.749 V 7.285 h 1.161 v 0.371 c 0,1.072 -0.839,1.91 -1.91,1.91 H 1.91 C 0.839,9.566 0,8.728 0,7.656 V 4.964 C 0,3.91 0.857,3.054 1.91,3.054 h 8.028 c 0.405,0 0.749,-0.336 0.749,-0.733 v -2.692 c 0,-0.406 -0.344,-0.749 -0.749,-0.749 H 1.91 c -0.406,0 -0.749,0.343 -0.749,0.749 V 0 Z M 9.938,-2.475 H 1.91 c -1.179,0 -2.103,0.924 -2.103,2.104 v 0.564 h 1.547 v -0.564 c 0,-0.296 0.26,-0.556 0.556,-0.556 h 8.028 c 0.295,0 0.555,0.26 0.555,0.556 v 2.692 c 0,0.292 -0.254,0.539 -0.555,0.539 H 1.91 c -1.16,0 -2.103,0.944 -2.103,2.104 v 2.692 c 0,1.18 0.924,2.104 2.103,2.104 h 8.028 c 1.179,0 2.103,-0.924 2.103,-2.104 V 7.092 h -1.548 v 0.564 c 0,0.296 -0.26,0.556 -0.555,0.556 H 1.91 C 1.614,8.212 1.354,7.952 1.354,7.656 V 4.964 c 0,-0.292 0.255,-0.539 0.556,-0.539 h 8.028 c 1.159,0 2.103,-0.944 2.103,-2.104 v -2.692 c 0,-1.18 -0.924,-2.104 -2.103,-2.104"
                 style="fill:#7aca2a;fill-opacity:1;fill-rule:nonzero;stroke:none"
                 transform="matrix(2.0166666,0,0,-2.0166666,186.73205,109.5808)"
                 clip-path="url(#clipPath11)" />
              <path
                 id="path12"
                 d="M 0,0 C 0.351,0 0.652,0.301 0.652,0.652 V 8.68 C 0.652,9.031 0.351,9.332 0,9.332 H -8.027 C -8.378,9.332 -8.68,9.031 -8.68,8.68 V 0.652 C -8.68,0.301 -8.378,0 -8.027,0 Z M 0,10.687 C 1.121,10.687 2.007,9.8 2.007,8.68 V 0.652 C 2.007,-0.468 1.121,-1.354 0,-1.354 h -8.027 c -1.121,0 -2.007,0.886 -2.007,2.006 V 8.68 c 0,1.12 0.886,2.007 2.007,2.007 z"
                 style="fill:#7aca2a;fill-opacity:1;fill-rule:nonzero;stroke:none"
                 transform="matrix(2.0166666,0,0,-2.0166666,243.23017,111.64485)"
                 clip-path="url(#clipPath13)" />
              <path
                 id="path14"
                 d="m 0,0 c -0.296,0 -0.556,-0.26 -0.556,-0.556 v -8.027 c 0,-0.296 0.26,-0.556 0.556,-0.556 h 8.027 c 0.296,0 0.556,0.26 0.556,0.556 v 8.027 C 8.583,-0.26 8.323,0 8.027,0 Z M 8.027,-9.332 H 0 c -0.406,0 -0.749,0.343 -0.749,0.749 v 8.027 c 0,0.407 0.343,0.749 0.749,0.749 h 8.027 c 0.406,0 0.749,-0.342 0.749,-0.749 v -8.027 c 0,-0.406 -0.343,-0.749 -0.749,-0.749 M 0,1.354 c -1.071,0 -1.91,-0.838 -1.91,-1.91 v -8.027 c 0,-1.071 0.839,-1.91 1.91,-1.91 h 8.027 c 1.072,0 1.911,0.839 1.911,1.91 v 8.027 c 0,1.072 -0.839,1.91 -1.911,1.91 z M 8.027,-10.687 H 0 c -1.179,0 -2.104,0.924 -2.104,2.104 v 8.027 c 0,1.18 0.925,2.104 2.104,2.104 h 8.027 c 1.18,0 2.104,-0.924 2.104,-2.104 v -8.027 c 0,-1.18 -0.924,-2.104 -2.104,-2.104"
                 style="fill:#7aca2a;fill-opacity:1;fill-rule:nonzero;stroke:none"
                 transform="matrix(2.0166666,0,0,-2.0166666,227.04177,93.020134)"
                 clip-path="url(#clipPath15)" />
              <path
                 id="path16"
                 d="m 0,0 h 1.354 v -10.703 h 10.687 v -1.355 H 0 Z"
                 style="fill:#7aca2a;fill-opacity:1;fill-rule:nonzero;stroke:none"
                 transform="matrix(2.0166666,0,0,-2.0166666,259.6549,90.060277)"
                 clip-path="url(#clipPath17)" />
              <path
                 id="path18"
                 d="M 0,0 H 11.848 V 1.161 H 1.161 V 11.864 H 0 Z M 12.041,-0.193 H -0.193 V 12.058 H 1.354 V 1.354 h 10.687 z"
                 style="fill:#7aca2a;fill-opacity:1;fill-rule:nonzero;stroke:none"
                 transform="matrix(2.0166666,0,0,-2.0166666,259.84993,114.18142)"
                 clip-path="url(#clipPath19)" />
              <path
                 id="path20"
                 d="m 0,0 h 1.354 v -10.034 c 0,-1.12 -0.886,-2.007 -2.006,-2.007 H -8.68 c -1.12,0 -2.007,0.887 -2.007,2.007 V 0 h 1.355 v -10.034 c 0,-0.352 0.301,-0.653 0.652,-0.653 h 8.028 c 0.351,0 0.652,0.301 0.652,0.653 z"
                 style="fill:#7aca2a;fill-opacity:1;fill-rule:nonzero;stroke:none"
                 transform="matrix(2.0166666,0,0,-2.0166666,316.01046,90.093749)"
                 clip-path="url(#clipPath21)" />
              <path
                 id="path22"
                 d="m 0,0 v -9.938 c 0,-1.071 0.839,-1.91 1.91,-1.91 h 8.028 c 1.071,0 1.91,0.839 1.91,1.91 V 0 h -1.161 v -9.938 c 0,-0.406 -0.344,-0.749 -0.749,-0.749 H 1.91 c -0.406,0 -0.749,0.343 -0.749,0.749 V 0 Z M 9.938,-12.041 H 1.91 c -1.179,0 -2.103,0.924 -2.103,2.103 V 0.193 H 1.354 V -9.938 c 0,-0.295 0.26,-0.555 0.556,-0.555 h 8.028 c 0.295,0 0.555,0.26 0.555,0.555 V 0.193 h 1.548 V -9.938 c 0,-1.179 -0.924,-2.103 -2.103,-2.103"
                 style="fill:#7aca2a;fill-opacity:1;fill-rule:nonzero;stroke:none"
                 transform="matrix(2.0166666,0,0,-2.0166666,294.65417,90.288559)"
                 clip-path="url(#clipPath23)" />
              <path
                 id="path24"
                 d="m 0,0 v -1.354 h -5.335 v -10.687 h -1.354 v 10.687 h -5.352 V 0 Z"
                 style="fill:#7aca2a;fill-opacity:1;fill-rule:nonzero;stroke:none"
                 transform="matrix(2.0166666,0,0,-2.0166666,354.15471,90.093749)"
                 clip-path="url(#clipPath25)" />
              <path
                 id="path26"
                 d="m 0,0 h 1.161 v 10.687 h 5.335 v 1.161 H -5.352 V 10.687 H 0 Z m 1.354,-0.193 h -1.547 v 10.686 h -5.352 v 1.548 H 6.689 V 10.493 H 1.354 Z"
                 style="fill:#7aca2a;fill-opacity:1;fill-rule:nonzero;stroke:none"
                 transform="matrix(2.0166666,0,0,-2.0166666,340.85923,114.18142)"
                 clip-path="url(#clipPath27)" />
              <path
                 id="path28"
                 d="m 126.756,41.965 h 1.354 V 29.924 h -1.354 z"
                 style="fill:#7aca2a;fill-opacity:1;fill-rule:nonzero;stroke:none"
                 transform="matrix(2.0166666,0,0,-2.0166666,109.72642,174.72276)"
                 clip-path="url(#clipPath29)" />
              <path
                 id="path30"
                 d="m 126.853,30.021 h 1.161 v 11.848 h -1.161 z m 1.354,-0.194 h -1.548 v 12.234 h 1.548 z"
                 style="fill:#7aca2a;fill-opacity:1;fill-rule:nonzero;stroke:none"
                 transform="matrix(2.0166666,0,0,-2.0166666,109.72642,174.72276)"
                 clip-path="url(#clipPath31)" />
              <path
                 id="path32"
                 d="M 0,0 C 0.351,0 0.651,0.301 0.651,0.652 V 8.68 C 0.651,9.031 0.351,9.332 0,9.332 H -8.027 C -8.379,9.332 -8.68,9.031 -8.68,8.68 V 0.652 C -8.68,0.301 -8.379,0 -8.027,0 Z M 0,10.687 C 1.12,10.687 2.007,9.8 2.007,8.68 V 0.652 C 2.007,-0.468 1.12,-1.354 0,-1.354 h -8.027 c -1.121,0 -2.007,0.886 -2.007,2.006 V 8.68 c 0,1.12 0.886,2.007 2.007,2.007 z"
                 style="fill:#7aca2a;fill-opacity:1;fill-rule:nonzero;stroke:none"
                 transform="matrix(2.0166666,0,0,-2.0166666,401.53265,111.64485)"
                 clip-path="url(#clipPath33)" />
              <path
                 id="path34"
                 d="m 0,0 c -0.296,0 -0.556,-0.26 -0.556,-0.556 v -8.027 c 0,-0.296 0.26,-0.556 0.556,-0.556 h 8.027 c 0.296,0 0.555,0.26 0.555,0.556 v 8.027 C 8.582,-0.26 8.323,0 8.027,0 Z M 8.027,-9.332 H 0 c -0.406,0 -0.749,0.343 -0.749,0.749 v 8.027 c 0,0.407 0.343,0.749 0.749,0.749 h 8.027 c 0.406,0 0.748,-0.342 0.748,-0.749 v -8.027 c 0,-0.406 -0.342,-0.749 -0.748,-0.749 M 0,1.354 c -1.071,0 -1.91,-0.838 -1.91,-1.91 v -8.027 c 0,-1.071 0.839,-1.91 1.91,-1.91 h 8.027 c 1.072,0 1.911,0.839 1.911,1.91 v 8.027 c 0,1.072 -0.839,1.91 -1.911,1.91 z M 8.027,-10.687 H 0 c -1.18,0 -2.104,0.924 -2.104,2.104 v 8.027 c 0,1.18 0.924,2.104 2.104,2.104 h 8.027 c 1.18,0 2.104,-0.924 2.104,-2.104 v -8.027 c 0,-1.18 -0.924,-2.104 -2.104,-2.104"
                 style="fill:#7aca2a;fill-opacity:1;fill-rule:nonzero;stroke:none"
                 transform="matrix(2.0166666,0,0,-2.0166666,385.34406,93.020134)"
                 clip-path="url(#clipPath35)" />
              <path
                 id="path36"
                 d="m 0,0 h 1.354 v -12.041 h -1.856 l -8.83,10.502 v -10.502 h -1.355 V 0 H -8.83 L 0,-10.502 Z"
                 style="fill:#7aca2a;fill-opacity:1;fill-rule:nonzero;stroke:none"
                 transform="matrix(2.0166666,0,0,-2.0166666,439.47302,90.093749)"
                 clip-path="url(#clipPath37)" />
              <path
                 id="path38"
                 d="m 0,0 9.001,-10.704 1.686,0.032 V 1.178 H 9.525 V -9.492 L 0.524,1.212 -1.161,1.18 V -10.67 H 0 Z M 10.88,-10.863 H 8.927 L 0.193,-0.528 V -10.863 H -1.354 V 1.371 H 0.599 L 9.332,-8.964 V 1.371 h 1.548 z"
                 style="fill:#7aca2a;fill-opacity:1;fill-rule:nonzero;stroke:none"
                 transform="matrix(2.0166666,0,0,-2.0166666,420.45847,92.663789)"
                 clip-path="url(#clipPath39)" />
              <path
                 id="path40"
                 d="m 0,0 h -1.355 v 0.468 c 0,0.351 -0.301,0.652 -0.652,0.652 h -8.027 c -0.352,0 -0.653,-0.301 -0.653,-0.652 v -2.693 c 0,-0.351 0.301,-0.635 0.653,-0.635 h 8.027 C -0.887,-2.86 0,-3.764 0,-4.867 V -7.56 c 0,-1.12 -0.887,-2.006 -2.007,-2.006 h -8.027 c -1.121,0 -2.007,0.886 -2.007,2.006 v 0.468 h 1.354 V -7.56 c 0,-0.351 0.301,-0.652 0.653,-0.652 h 8.027 c 0.351,0 0.652,0.301 0.652,0.652 v 2.693 c 0,0.351 -0.301,0.636 -0.652,0.636 h -8.027 c -1.121,0 -2.007,0.903 -2.007,2.006 v 2.693 c 0,1.12 0.886,2.007 2.007,2.007 h 8.027 C -0.887,2.475 0,1.588 0,0.468 Z"
                 style="fill:#7aca2a;fill-opacity:1;fill-rule:nonzero;stroke:none"
                 transform="matrix(2.0166666,0,0,-2.0166666,478.73106,95.084197)"
                 clip-path="url(#clipPath41)" />
              <path
                 id="path42"
                 d="m 0,0 v -0.371 c 0,-1.071 0.839,-1.91 1.91,-1.91 h 8.028 c 1.071,0 1.91,0.839 1.91,1.91 v 2.692 c 0,1.054 -0.857,1.91 -1.91,1.91 H 1.91 c -0.413,0 -0.749,0.33 -0.749,0.733 v 2.692 c 0,0.407 0.343,0.749 0.749,0.749 h 8.028 c 0.405,0 0.748,-0.342 0.748,-0.749 V 7.285 h 1.162 v 0.371 c 0,1.072 -0.839,1.91 -1.91,1.91 H 1.91 C 0.839,9.566 0,8.728 0,7.656 V 4.964 C 0,3.91 0.856,3.054 1.91,3.054 h 8.028 c 0.405,0 0.748,-0.336 0.748,-0.733 v -2.692 c 0,-0.406 -0.343,-0.749 -0.748,-0.749 H 1.91 c -0.406,0 -0.749,0.343 -0.749,0.749 V 0 Z M 9.938,-2.475 H 1.91 c -1.18,0 -2.103,0.924 -2.103,2.104 v 0.564 h 1.547 v -0.564 c 0,-0.296 0.26,-0.556 0.556,-0.556 h 8.028 c 0.295,0 0.554,0.26 0.554,0.556 v 2.692 c 0,0.292 -0.254,0.539 -0.554,0.539 H 1.91 c -1.16,0 -2.103,0.944 -2.103,2.104 v 2.692 c 0,1.18 0.923,2.104 2.103,2.104 h 8.028 c 1.179,0 2.103,-0.924 2.103,-2.104 V 7.092 h -1.549 v 0.564 c 0,0.296 -0.259,0.556 -0.554,0.556 H 1.91 C 1.614,8.212 1.354,7.952 1.354,7.656 V 4.964 c 0,-0.292 0.254,-0.539 0.556,-0.539 h 8.028 c 1.16,0 2.103,-0.944 2.103,-2.104 v -2.692 c 0,-1.18 -0.924,-2.104 -2.103,-2.104"
                 style="fill:#7aca2a;fill-opacity:1;fill-rule:nonzero;stroke:none"
                 transform="matrix(2.0166666,0,0,-2.0166666,454.64339,109.5808)"
                 clip-path="url(#clipPath43)" />
            </g>
          </g>
        </g>
      </g>
    </g>
  </g>
</svg>
