<?xml version="1.0" encoding="UTF-8" standalone="no"?>
<!-- Created with Inkscape (http://www.inkscape.org/) -->

<svg
   version="1.1"
   id="svg1"
   width="1536"
   height="1024"
   viewBox="0 0 1536 1024"
   sodipodi:docname="30Years.svg"
   inkscape:version="1.4.2 (f4327f4, 2025-05-13)"
   xmlns:inkscape="http://www.inkscape.org/namespaces/inkscape"
   xmlns:sodipodi="http://sodipodi.sourceforge.net/DTD/sodipodi-0.dtd"
   xmlns="http://www.w3.org/2000/svg"
   xmlns:svg="http://www.w3.org/2000/svg">
  <defs
     id="defs1" />
  <sodipodi:namedview
     id="namedview1"
     pagecolor="#ffffff"
     bordercolor="#000000"
     borderopacity="0.25"
     inkscape:showpageshadow="2"
     inkscape:pageopacity="0.0"
     inkscape:pagecheckerboard="0"
     inkscape:deskcolor="#d1d1d1"
     showgrid="false"
     inkscape:zoom="1.141276"
     inkscape:cx="768"
     inkscape:cy="512.14604"
     inkscape:window-width="2496"
     inkscape:window-height="1558"
     inkscape:window-x="-11"
     inkscape:window-y="-11"
     inkscape:window-maximized="1"
     inkscape:current-layer="g1" />
  <g
     inkscape:groupmode="layer"
     inkscape:label="Image"
     id="g1">
    <g
       id="g2"
       transform="translate(-2.6286345,-62.211068)">
      <path
         style="fill:#19baf9"
         d="M 736,891.89459 C 702.36995,889.24545 674.50511,883.77082 644.20808,873.86016 528.41526,835.98239 436.88348,744.99975 396.86398,628 c -8.76525,-25.62582 -14.58962,-52.26562 -18.03732,-82.5 -1.63196,-14.31145 -1.61742,-56.54734 0.025,-72.5 14.51789,-141.01323 101.62472,-261.16967 228.73339,-315.5182 47.16289,-20.16569 100.61937,-30.48667 157.86487,-30.47937 77.42535,0.01 145.44336,18.18776 207.25916,55.39025 28.86422,17.37131 49.06922,33.22257 73.33492,57.5329 85.4236,85.58055 124.8498,202.28242 107.895,319.37018 -11.3913,78.6671 -50.5152,156.99435 -107.9285,216.07657 -57.30303,58.9687 -127.85243,97.52669 -201.39146,110.06827 -40.6085,6.9255 -75.96436,9.0263 -108.61901,6.45399 z M 802.5,771.59036 C 895.91211,757.56385 972.84429,702.34699 1013.0101,620.5 c 12.6617,-25.80088 20.346,-50.15632 24.6098,-78 2.6221,-17.12329 2.6535,-59.33622 0.056,-75 -4.7658,-28.73731 -11.6828,-50.50377 -24.1513,-76 C 999.89597,363.63176 985.07737,342.97693 962.55022,320.44978 940.51524,298.4148 917.70866,281.9591 890.79954,268.67928 862.49173,254.7092 838.50691,247.39839 804.42756,242.35225 789.75958,240.18036 748.59069,239.85819 734,241.80111 c -26.99087,3.59416 -56.48617,11.67842 -79.06148,21.66967 -32.28108,14.28676 -65.11198,38.12698 -88.17609,64.02922 -33.24927,37.34074 -55.75418,81.50115 -65.17324,127.88665 -6.55772,32.2944 -6.38801,74.08328 0.43739,107.70658 15.54275,76.56662 69.42478,145.64507 141.80263,181.79541 26.41921,13.19551 61.8109,23.80528 90.17079,27.03151 5.225,0.5944 10.85,1.26965 12.5,1.50057 6.45043,0.90274 46.52054,-0.40696 56,-1.83036 z M 632.03533,642.91258 C 616.78293,641.44424 589.73185,634.42555 585.25,630.77364 583.77361,629.57065 583.41118,586 584.87756,586 c 0.48265,0 1.40738,0.63841 2.05495,1.41868 1.87006,2.25329 13.96322,9.0655 21.06749,11.86757 11.16858,4.40511 22.02862,6.18508 37.5,6.14631 15.40831,-0.0386 22.56497,-1.41068 33,-6.32665 15.93098,-7.50514 24.64101,-23.12261 23.20408,-41.60591 -1.48634,-19.11891 -13.37691,-32.32219 -34.7112,-38.54331 -6.51947,-1.90109 -10.70818,-2.25084 -32.24288,-2.69225 L 610,515.75713 v -19.2731 -19.2731 l 23.25,-0.48518 c 25.49064,-0.53193 30.51221,-1.38344 41.00209,-6.95273 7.08918,-3.76378 13.08355,-10.12329 16.5875,-17.59787 2.41758,-5.15715 2.66037,-6.77045 2.65994,-17.67515 -4.4e-4,-11.18907 -0.19074,-12.37168 -2.81594,-17.5 -1.5485,-3.025 -4.64545,-7.37782 -6.8821,-9.67293 -16.0181,-16.4368 -57.83366,-14.15046 -86.55149,4.73236 L 594,414.1964 v -21.97505 -21.97506 l 4.8332,-2.07919 c 20.9761,-9.02367 54.1839,-13.28103 76.6668,-9.82895 25.08685,3.8519 44.25454,13.57908 55.04567,27.93445 8.51698,11.33008 12.29893,21.8909 13.16584,36.7646 1.17057,20.08381 -4.63284,35.89 -18.18936,49.54066 -9.10908,9.17234 -17.24033,14.43778 -29.52215,19.11723 -4.675,1.78121 -7.76284,3.25349 -6.86187,3.27174 0.90098,0.0182 5.53401,1.16215 10.29563,2.54201 35.55086,10.30224 52.33053,33.65743 50.27389,69.97495 -0.68572,12.10893 -4.62506,25.32627 -10.36405,34.77367 -18.00233,29.63504 -59.29089,45.27774 -107.30827,40.65512 z M 850.5,643.37478 C 816.09593,638.03208 792.45782,616.4266 780.61594,579.5 c -11.70228,-36.49127 -13.39798,-93.10896 -4.11927,-137.53783 5.95666,-28.52199 18.96291,-53.00271 35.40654,-66.64315 7.64714,-6.34351 21.55177,-13.35834 31.59679,-15.94045 10.00496,-2.57182 33.21039,-2.57505 43.5,-0.006 43.69419,10.90907 66.28051,50.19808 69.92933,121.6424 4.18794,82.00043 -17.87925,138.6088 -60.92933,156.30041 -3.575,1.46916 -9.2,3.36848 -12.5,4.22071 -5.96714,1.54102 -27.27267,2.72815 -33,1.83874 z m 27.63867,-40.65442 c 16.47459,-8.06093 25.9418,-29.92647 29.9101,-69.08058 1.64571,-16.23782 0.71669,-65.42009 -1.50435,-79.63978 -5.55676,-35.57589 -15.18724,-52.3518 -33.03131,-57.53921 -16.53142,-4.80582 -32.15984,3.56558 -41.01082,21.96752 -10.02598,20.84486 -14.99389,61.47129 -12.63769,103.34815 3.39185,60.28363 16.77616,85.0832 45.27407,83.88764 5.75304,-0.24136 8.96214,-0.96803 13,-2.94374 z"
         id="path8" />
      <path
         style="fill:#009ae5"
         d="M 748,892.33584 C 711.42104,890.37923 674.67562,883.77235 643.82609,873.60523 568.5731,848.804 502.52794,801.06486 454.34519,736.64357 440.57924,718.23821 429.56488,700.3777 418.45781,678.4498 392.75181,627.70027 380.03957,578.40046 377.53614,519.75 L 376.94924,506 H 435.97462 495 l 0.1542,-5.25 c 0.0848,-2.8875 0.49623,2.86472 0.91425,12.78271 1.84639,43.80773 9.78848,75.98942 27.38192,110.95286 13.95953,27.74175 28.66653,48.27627 49.92643,69.70933 49.90821,50.31471 120.78729,79.84043 191.6232,79.82345 106.09762,-0.0254 201.90111,-59.58765 248.5367,-154.51835 14.621,-29.76228 22.022,-55.92652 25.5592,-90.35755 1.4758,-14.36554 0.615,-49.06798 -1.5539,-62.64245 -8.9203,-55.82934 -34.4595,-105.54882 -75.0012,-146.01145 C 947.05629,305.03426 934.90724,295.12029 917.5,283.73402 877.61137,257.64242 829.86004,242.59387 779.71827,240.31294 l -13.78184,-0.62694 0.28178,-55.79973 0.28179,-55.79974 -5,-0.44037 c -2.75,-0.24221 5.125,-0.27045 17.5,-0.0628 89.20467,1.49704 171.19725,31.29925 240,87.23385 13.3396,10.84472 40.0204,37.53943 51.1562,51.18277 93.1789,114.16181 113.4657,260.65886 54.4223,393 C 1082.2457,753.8855 1004.7365,829.19627 910.5,867.00642 865.53657,885.04693 800.69267,895.15436 748,892.33582 Z M 638,643.35845 c -16.45921,-1.12221 -40.8428,-6.6868 -50.18466,-11.45266 l -3.90562,-1.99249 0.16162,-21.94368 c 0.0889,-12.06903 0.44669,-21.76384 0.79513,-21.54402 0.34844,0.21981 3.63912,2.41896 7.31261,4.887 7.54275,5.06759 19.35018,9.92327 30.0784,12.36943 10.51731,2.39808 36.01547,2.37883 44.66256,-0.0337 18.82248,-5.25147 30.64357,-16.54235 33.97126,-32.44753 5.27465,-25.21102 -8.47147,-45.97776 -34.94419,-52.79141 -4.82596,-1.24212 -12.67058,-1.77912 -31.19711,-2.13555 L 610,515.79765 V 496.39883 477 h 19.91203 c 13.45126,0 22.42811,-0.48141 27.66656,-1.48369 15.24345,-2.91655 27.00086,-10.7182 32.37079,-21.47969 3.63926,-7.29317 4.18684,-9.86401 4.14688,-19.46933 -0.0969,-23.30249 -13.17198,-36.25595 -38.56464,-38.20598 -18.30889,-1.40604 -44.28145,5.58943 -58.78162,15.83229 l -2.75,1.94259 v -21.99541 -21.99541 l 8.25,-3.18154 c 19.44766,-7.49982 46.32637,-11.2133 66.49928,-9.18735 34.34297,3.44904 56.69678,16.20307 67.8702,38.72352 5.60837,11.30389 7.77222,22.13656 6.99134,35 -1.53076,25.21618 -14.91839,44.16374 -40.11082,56.769 -3.85,1.92638 -8.96342,4.09041 -11.36317,4.80895 l -4.36316,1.30644 9.79585,2.78354 c 28.01558,7.96077 43.75144,22.0779 50.06183,44.91203 2.74736,9.94135 2.51344,30.96233 -0.46029,41.36345 -8.77518,30.69265 -32.84457,50.28923 -70.58067,57.46469 -10.29107,1.95683 -28.69212,3.12523 -38.59039,2.45035 z m 211.5,-0.39813 c -42.83291,-6.67284 -67.25414,-37.64382 -76.20494,-96.64306 -2.56903,-16.93372 -2.57761,-69.66746 -0.014,-86.31726 7.69189,-49.95723 25.05158,-80.26844 54.13877,-94.53003 12.33634,-6.04857 20.94707,-7.8079 38.08022,-7.78048 17.51281,0.028 25.99391,1.82319 39,8.25501 28.89778,14.29063 46.00486,47.54242 51.47564,100.0555 1.52899,14.67649 1.2517,53.56877 -0.48795,68.44062 -5.94027,50.7818 -24.55273,85.34078 -53.87344,100.03036 -5.01284,2.51141 -12.71425,5.47161 -17.11425,6.57821 -9.26376,2.32983 -26.33045,3.26174 -35,1.91113 z m 28.73278,-40.28578 c 10.86983,-5.31811 18.79264,-17.07041 24.1774,-35.86356 9.3576,-32.65861 9.37888,-99.55219 0.0424,-133.31098 -5.04933,-18.25736 -12.87076,-30.1028 -23.23816,-35.19385 -4.98325,-2.44709 -6.86603,-2.80497 -14.71444,-2.79694 -7.78378,0.008 -9.67835,0.3661 -14.0198,2.65019 -10.07621,5.30124 -17.62908,16.03151 -22.76403,32.3406 -10.39204,33.0061 -11.42737,98.95713 -2.13498,136 5.09146,20.29647 14.38457,33.78699 26.04772,37.81267 7.44762,2.57063 19.52095,1.82722 26.60387,-1.63813 z M 378.28601,491.5 c 0.008,-2.75 0.20172,-3.75631 0.43157,-2.23625 0.22986,1.52006 0.22371,3.77006 -0.0136,5 -0.23736,1.22994 -0.42542,-0.0138 -0.41792,-2.76375 z m 117.96617,-7 c 0.0111,-2.2 0.21589,-2.98225 0.45508,-1.73834 0.23919,1.24391 0.23011,3.04391 -0.0202,4 -0.25029,0.95609 -0.446,-0.0617 -0.4349,-2.26166 z m -117,-9 c 0.0111,-2.2 0.21589,-2.98225 0.45508,-1.73834 0.23919,1.24391 0.23011,3.04391 -0.0202,4 -0.25029,0.95609 -0.446,-0.0617 -0.4349,-2.26166 z m 118,0 c 0.0111,-2.2 0.21589,-2.98225 0.45508,-1.73834 0.23919,1.24391 0.23011,3.04391 -0.0202,4 -0.25029,0.95609 -0.446,-0.0617 -0.4349,-2.26166 z m 0.94277,-7 c 0.0204,-1.65 0.2445,-2.20394 0.49804,-1.23097 0.25354,0.97297 0.23687,2.32297 -0.0371,3 -0.27393,0.67703 -0.48137,-0.11903 -0.46099,-1.76903 z M 380.15789,468 c 0,-1.375 0.22698,-1.9375 0.50439,-1.25 0.27741,0.6875 0.27741,1.8125 0,2.5 -0.27741,0.6875 -0.50439,0.125 -0.50439,-1.25 z m 118.92106,-5.58333 c 0.048,-1.16495 0.28494,-1.4019 0.60416,-0.60417 0.28887,0.72187 0.25335,1.58438 -0.0789,1.91667 -0.33229,0.33229 -0.56864,-0.25834 -0.52522,-1.3125 z M 381.19495,458.5 c 0.0204,-1.65 0.2445,-2.20394 0.49804,-1.23097 0.25354,0.97297 0.23687,2.32297 -0.0371,3 -0.27393,0.67703 -0.48137,-0.11903 -0.46099,-1.76903 z M 500.15789,457 c 0,-1.375 0.22698,-1.9375 0.50439,-1.25 0.27741,0.6875 0.27741,1.8125 0,2.5 -0.27741,0.6875 -0.50439,0.125 -0.50439,-1.25 z m -117.96294,-5.5 c 0.0204,-1.65 0.2445,-2.20394 0.49804,-1.23097 0.25354,0.97297 0.23687,2.32297 -0.0371,3 -0.27393,0.67703 -0.48137,-0.11903 -0.46099,-1.76903 z m 118.884,-0.0833 c 0.048,-1.16495 0.28494,-1.4019 0.60416,-0.60417 0.28887,0.72187 0.25335,1.58438 -0.0789,1.91667 -0.33229,0.33229 -0.56864,-0.25834 -0.52522,-1.3125 z m 1,-4 c 0.048,-1.16495 0.28494,-1.4019 0.60416,-0.60417 0.28887,0.72187 0.25335,1.58438 -0.0789,1.91667 -0.33229,0.33229 -0.56864,-0.25834 -0.52522,-1.3125 z m -119,-2 c 0.048,-1.16495 0.28494,-1.4019 0.60416,-0.60417 0.28887,0.72187 0.25335,1.58438 -0.0789,1.91667 -0.33229,0.33229 -0.56864,-0.25834 -0.52522,-1.3125 z m 1,-5 c 0.048,-1.16495 0.28494,-1.4019 0.60416,-0.60417 0.28887,0.72187 0.25335,1.58438 -0.0789,1.91667 -0.33229,0.33229 -0.56864,-0.25834 -0.52522,-1.3125 z m 1,-6 c 0.048,-1.16495 0.28494,-1.4019 0.60416,-0.60417 0.28887,0.72187 0.25335,1.58438 -0.0789,1.91667 -0.33229,0.33229 -0.56864,-0.25834 -0.52522,-1.3125 z m 3,-13 c 0.048,-1.16495 0.28494,-1.4019 0.60416,-0.60417 0.28887,0.72187 0.25335,1.58438 -0.0789,1.91667 -0.33229,0.33229 -0.56864,-0.25834 -0.52522,-1.3125 z m 2,-9 c 0.048,-1.16495 0.28494,-1.4019 0.60416,-0.60417 0.28887,0.72187 0.25335,1.58438 -0.0789,1.91667 -0.33229,0.33229 -0.56864,-0.25834 -0.52522,-1.3125 z M 514,409.3578 c 0,-0.53655 0.69982,-1.84905 1.55517,-2.91667 1.46637,-1.83031 1.48719,-1.7984 0.36454,0.55887 C 514.4619,410.06103 514,410.62834 514,409.3578 Z M 517.08029,402 C 518.5381,398.93897 519,398.37166 519,399.6422 c 0,0.53655 -0.69982,1.84905 -1.55517,2.91667 -1.46637,1.83031 -1.48719,1.7984 -0.36454,-0.55887 z m -123.00134,-3.58333 c 0.048,-1.16495 0.28494,-1.4019 0.60416,-0.60417 0.28887,0.72187 0.25335,1.58438 -0.0789,1.91667 -0.33229,0.33229 -0.56864,-0.25834 -0.52522,-1.3125 z M 523,389.05902 c 0,-0.51754 0.44485,-1.21592 0.98855,-1.55194 0.56686,-0.35034 0.7345,0.0511 0.39301,0.94098 C 523.71677,390.18048 523,390.49745 523,389.05902 Z m 2,-4 c 0,-0.51754 0.44485,-1.21592 0.98855,-1.55194 0.56686,-0.35034 0.7345,0.0511 0.39301,0.94098 C 525.71677,386.18048 525,386.49745 525,385.05902 Z M 401.03063,377.5 c 0,-0.55 0.43621,-1.675 0.96937,-2.5 0.53316,-0.825 0.96937,-1.05 0.96937,-0.5 0,0.55 -0.43621,1.675 -0.96937,2.5 -0.53316,0.825 -0.96937,1.05 -0.96937,0.5 z M 530,376.05902 c 0,-0.51754 0.44485,-1.21592 0.98855,-1.55194 0.56686,-0.35034 0.7345,0.0511 0.39301,0.94098 C 530.71677,377.18048 530,377.49745 530,376.05902 Z M 403.03063,372.5 c 0,-0.55 0.43621,-1.675 0.96937,-2.5 0.53316,-0.825 0.96937,-1.05 0.96937,-0.5 0,0.55 -0.43621,1.675 -0.96937,2.5 -0.53316,0.825 -0.96937,1.05 -0.96937,0.5 z m 7.04024,-17 c 0,-0.55 0.64311,-2.125 1.42913,-3.5 0.78602,-1.375 1.42913,-2.05 1.42913,-1.5 0,0.55 -0.64311,2.125 -1.42913,3.5 -0.78602,1.375 -1.42913,2.05 -1.42913,1.5 z m 3.95976,-9 c 0,-0.55 0.43621,-1.675 0.96937,-2.5 0.53316,-0.825 0.96937,-1.05 0.96937,-0.5 0,0.55 -0.43621,1.675 -0.96937,2.5 -0.53316,0.825 -0.96937,1.05 -0.96937,0.5 z M 551.5,344 c 0.99549,-1.1 2.03498,-2 2.30998,-2 0.275,0 -0.31449,0.9 -1.30998,2 -0.99549,1.1 -2.03498,2 -2.30998,2 -0.275,0 0.31449,-0.9 1.30998,-2 z m 3.5,-4.37756 c 0,-0.20765 0.7875,-0.99515 1.75,-1.75 1.58606,-1.24387 1.62143,-1.2085 0.37756,0.37756 C 555.82119,339.91575 555,340.44548 555,339.62244 Z M 418,338.62683 C 418,337.54685 421.97221,330 422.54065,330 c 0.275,0 -0.46446,1.9125 -1.64325,4.25 -2.31816,4.59686 -2.8974,5.47186 -2.8974,4.37683 z M 560,333.5 c 1.29175,-1.375 2.57363,-2.5 2.84863,-2.5 0.275,0 -0.55688,1.125 -1.84863,2.5 -1.29175,1.375 -2.57363,2.5 -2.84863,2.5 -0.275,0 0.55688,-1.125 1.84863,-2.5 z m 8,-9 c 1.86578,-1.925 3.61733,-3.5 3.89233,-3.5 0.275,0 -1.02655,1.575 -2.89233,3.5 -1.86578,1.925 -3.61733,3.5 -3.89233,3.5 -0.275,0 1.02655,-1.575 2.89233,-3.5 z M 428,319 c 0.5887,-1.1 1.29537,-2 1.57037,-2 0.275,0 0.0183,0.9 -0.57037,2 -0.5887,1.1 -1.29537,2 -1.57037,2 -0.275,0 -0.0183,-0.9 0.57037,-2 z m 151.95821,-6.25 c 2.45201,-2.6125 4.58951,-4.75 4.75,-4.75 0.75088,0 -0.043,0.89783 -4.45821,5.04179 L 575.5,317.5 Z M 431,314 c 0.5887,-1.1 1.29537,-2 1.57037,-2 0.275,0 0.0183,0.9 -0.57037,2 -0.5887,1.1 -1.29537,2 -1.57037,2 -0.275,0 -0.0183,-0.9 0.57037,-2 z m 3,-5 c 0.5887,-1.1 1.29537,-2 1.57037,-2 0.275,0 0.0183,0.9 -0.57037,2 -0.5887,1.1 -1.29537,2 -1.57037,2 -0.275,0 -0.0183,-0.9 0.57037,-2 z m 3,-5 c 0.5887,-1.1 1.29537,-2 1.57037,-2 0.275,0 0.0183,0.9 -0.57037,2 -0.5887,1.1 -1.29537,2 -1.57037,2 -0.275,0 -0.0183,-0.9 0.57037,-2 z m 153.5,-0.91582 c 1.94413,-2.23578 7.5,-6.57976 7.5,-5.86404 0,0.19599 -2.1375,2.11308 -4.75,4.26021 -2.6125,2.14713 -3.85,2.86885 -2.75,1.60383 z m 10.5,-8.44799 c 0,-0.275 1.35,-1.46129 3,-2.63619 1.65,-1.1749 3,-1.91119 3,-1.63619 0,0.275 -1.35,1.46129 -3,2.63619 -1.65,1.1749 -3,1.91119 -3,1.63619 z M 449,286 c 1.1749,-1.65 2.36119,-3 2.63619,-3 0.275,0 -0.46129,1.35 -1.63619,3 -1.1749,1.65 -2.36119,3 -2.63619,3 -0.275,0 0.46129,-1.35 1.63619,-3 z m 3,-4.37756 c 0,-0.20765 0.7875,-0.99515 1.75,-1.75 1.58606,-1.24387 1.62143,-1.2085 0.37756,0.37756 C 452.82119,281.91575 452,282.44548 452,281.62244 Z m 4.97847,-6.5922 c 1.16306,-1.63337 2.62534,-3.28538 3.24952,-3.67115 0.62418,-0.38576 -0.12518,0.95063 -1.66525,2.96976 -3.34267,4.38248 -4.60263,4.94029 -1.58427,0.70139 z m 169.75486,1.84567 c 0.67834,-0.68342 1.48524,-0.99067 1.79313,-0.68278 0.30789,0.30789 -0.24711,0.86705 -1.23333,1.24258 -1.4252,0.54268 -1.54006,0.42782 -0.5598,-0.5598 z M 634,272.60699 c 0,-0.21616 0.69837,-0.661 1.55194,-0.98855 0.88992,-0.34149 1.29132,-0.17385 0.94098,0.39301 C 635.90566,272.96166 634,273.4169 634,272.60699 Z M 462.5,268 c 0.99549,-1.1 2.03498,-2 2.30998,-2 0.275,0 -0.31449,0.9 -1.30998,2 -0.99549,1.1 -2.03498,2 -2.30998,2 -0.275,0 0.31449,-0.9 1.30998,-2 z m 180.23333,-0.12409 c 0.67834,-0.68342 1.48524,-0.99067 1.79313,-0.68278 0.30789,0.30789 -0.24711,0.86705 -1.23333,1.24258 -1.4252,0.54268 -1.54006,0.42782 -0.5598,-0.5598 z M 467.5,262 c 0.99549,-1.1 2.03498,-2 2.30998,-2 0.275,0 -0.31449,0.9 -1.30998,2 -0.99549,1.1 -2.03498,2 -2.30998,2 -0.275,0 0.31449,-0.9 1.30998,-2 z m 8.28513,-9.5 c 5.06954,-5.99557 23.14091,-23.93686 30.73737,-30.51613 2.21238,-1.91613 -0.80229,1.14524 -6.69927,6.80305 -5.89697,5.6578 -14.85944,14.6578 -19.91658,20 -5.05715,5.34219 -6.91183,7.01308 -4.12152,3.71308 z m 231.02737,-7.18311 c 0.72187,-0.28887 1.58438,-0.25335 1.91667,0.0789 0.33229,0.33229 -0.25834,0.56864 -1.3125,0.52522 -1.16495,-0.048 -1.4019,-0.28494 -0.60417,-0.60416 z m 5,-1 c 0.72187,-0.28887 1.58438,-0.25335 1.91667,0.0789 0.33229,0.33229 -0.25834,0.56864 -1.3125,0.52522 -1.16495,-0.048 -1.4019,-0.28494 -0.60417,-0.60416 z m 4.9375,-0.97917 c 0.6875,-0.27741 1.8125,-0.27741 2.5,0 0.6875,0.27741 0.125,0.50439 -1.25,0.50439 -1.375,0 -1.9375,-0.22698 -1.25,-0.50439 z m 7.0625,-1.02083 c 0.72187,-0.28887 1.58438,-0.25335 1.91667,0.0789 0.33229,0.33229 -0.25834,0.56864 -1.3125,0.52522 -1.16495,-0.048 -1.4019,-0.28494 -0.60417,-0.60416 z m 14.9375,-1.97917 c 0.6875,-0.27741 1.8125,-0.27741 2.5,0 0.6875,0.27741 0.125,0.50439 -1.25,0.50439 -1.375,0 -1.9375,-0.22698 -1.25,-0.50439 z m 18.51903,-1.03071 c 0.97297,-0.25354 2.32297,-0.23687 3,0.0371 0.67703,0.27393 -0.11903,0.48137 -1.76903,0.46099 -1.65,-0.0204 -2.20394,-0.2445 -1.23097,-0.49804 z M 513,216.62244 c 0,-0.20765 0.7875,-0.99515 1.75,-1.75 1.58606,-1.24387 1.62143,-1.2085 0.37756,0.37756 C 513.82119,216.91575 513,217.44548 513,216.62244 Z m 6,-4.95438 c 0,-0.275 1.8,-1.92563 4,-3.66806 2.2,-1.74243 4,-2.94306 4,-2.66806 0,0.275 -1.8,1.92563 -4,3.66806 -2.2,1.74243 -4,2.94306 -4,2.66806 z m 9,-7.04562 c 0,-0.20765 0.7875,-0.99515 1.75,-1.75 1.58606,-1.24387 1.62143,-1.2085 0.37756,0.37756 C 528.82119,204.91575 528,205.44548 528,204.62244 Z m 4,-3 c 0,-0.20765 0.7875,-0.99515 1.75,-1.75 1.58606,-1.24387 1.62143,-1.2085 0.37756,0.37756 C 532.82119,201.91575 532,202.44548 532,201.62244 Z m 4,-3.02636 c 0,-0.275 2.025,-1.89324 4.5,-3.59608 2.475,-1.70284 4.5,-2.87108 4.5,-2.59608 0,0.275 -2.025,1.89324 -4.5,3.59608 -2.475,1.70284 -4.5,2.87108 -4.5,2.59608 z m 13,-8.94589 c 0,-0.23109 1.18041,-1.1936 2.62312,-2.13891 1.44272,-0.9453 2.31766,-1.22448 1.94431,-0.62038 C 552.85397,188.04529 549,190.37357 549,189.65019 Z m 16,-10.07982 c 0,-0.275 0.9,-0.98167 2,-1.57037 1.1,-0.5887 2,-0.84537 2,-0.57037 0,0.275 -0.9,0.98167 -2,1.57037 -1.1,0.5887 -2,0.84537 -2,0.57037 z m 11,-6.02972 c 0,-0.275 1.8,-1.41829 4,-2.54065 2.2,-1.12236 4,-1.81565 4,-1.54065 0,0.275 -1.8,1.41829 -4,2.54065 -2.2,1.12236 -4,1.81565 -4,1.54065 z m 9.08333,-4.91347 C 586.11238,167.70641 592,165.00077 592,165.44864 592,166.02462 586.45618,169 585.38299,169 c -0.39398,0 -0.52882,-0.16777 -0.29966,-0.37282 z M 596,163 c 1.925,-1.05389 3.95,-1.91617 4.5,-1.91617 0.55,0 -0.575,0.86228 -2.5,1.91617 -1.925,1.05389 -3.95,1.91617 -4.5,1.91617 -0.55,0 0.575,-0.86228 2.5,-1.91617 z m 9,-4 c 0.825,-0.53316 1.95,-0.96937 2.5,-0.96937 0.55,0 0.325,0.43621 -0.5,0.96937 -0.825,0.53316 -1.95,0.96937 -2.5,0.96937 -0.55,0 -0.325,-0.43621 0.5,-0.96937 z m 9.89577,-4.09154 c 2.41767,-1.07264 4.57384,-1.77219 4.79148,-1.55454 0.43231,0.43231 -7.27363,3.69003 -8.45749,3.57544 -0.40137,-0.0388 1.24833,-0.94825 3.66601,-2.0209 z M 627.5,150 c 2.74909,-1.18132 4.32797,-1.18132 2.5,0 -0.825,0.53316 -2.175,0.94464 -3,0.9144 -0.98906,-0.0362 -0.81874,-0.34772 0.5,-0.9144 z m 22,-7 c 2.74909,-1.18132 4.32797,-1.18132 2.5,0 -0.825,0.53316 -2.175,0.94464 -3,0.9144 -0.98906,-0.0362 -0.81874,-0.34772 0.5,-0.9144 z m 6.3125,-1.68311 c 0.72187,-0.28887 1.58438,-0.25335 1.91667,0.0789 0.33229,0.33229 -0.25834,0.56864 -1.3125,0.52522 -1.16495,-0.048 -1.4019,-0.28494 -0.60417,-0.60416 z m 12,-3 c 0.72187,-0.28887 1.58438,-0.25335 1.91667,0.0789 0.33229,0.33229 -0.25834,0.56864 -1.3125,0.52522 -1.16495,-0.048 -1.4019,-0.28494 -0.60417,-0.60416 z m 5,-1 c 0.72187,-0.28887 1.58438,-0.25335 1.91667,0.0789 0.33229,0.33229 -0.25834,0.56864 -1.3125,0.52522 -1.16495,-0.048 -1.4019,-0.28494 -0.60417,-0.60416 z m 7.9375,-1.97917 c 0.6875,-0.27741 1.8125,-0.27741 2.5,0 0.6875,0.27741 0.125,0.50439 -1.25,0.50439 -1.375,0 -1.9375,-0.22698 -1.25,-0.50439 z m 12.0625,-2.02083 c 0.72187,-0.28887 1.58438,-0.25335 1.91667,0.0789 0.33229,0.33229 -0.25834,0.56864 -1.3125,0.52522 -1.16495,-0.048 -1.4019,-0.28494 -0.60417,-0.60416 z m 5.45653,-1.00988 c 0.97297,-0.25354 2.32297,-0.23687 3,0.0371 0.67703,0.27393 -0.11903,0.48137 -1.76903,0.46099 -1.65,-0.0204 -2.20394,-0.2445 -1.23097,-0.49804 z m 7,-1 c 0.97297,-0.25354 2.32297,-0.23687 3,0.0371 0.67703,0.27393 -0.11903,0.48137 -1.76903,0.46099 -1.65,-0.0204 -2.20394,-0.2445 -1.23097,-0.49804 z m 6.98097,-0.99634 c 0.9625,-0.25152 2.5375,-0.25152 3.5,0 0.9625,0.25153 0.175,0.45733 -1.75,0.45733 -1.925,0 -2.7125,-0.2058 -1.75,-0.45733 z m 10,-1 c 0.9625,-0.25152 2.5375,-0.25152 3.5,0 0.9625,0.25153 0.175,0.45733 -1.75,0.45733 -1.925,0 -2.7125,-0.2058 -1.75,-0.45733 z m 13.51791,-1.0354 c 1.79735,-0.22256 4.49735,-0.21797 6,0.0102 1.50265,0.22818 0.0321,0.41027 -3.26791,0.40466 -3.3,-0.006 -4.52944,-0.1923 -2.73209,-0.41486 z"
         id="path7" />
      <path
         style="fill:#1e9d4c"
         d="M 767,833.5 V 774 l 6.75,-0.0107 c 10.54677,-0.0167 32.55681,-2.62434 46.78746,-5.5431 84.6423,-17.36042 155.04993,-71.69716 192.99924,-148.94619 14.621,-29.76228 22.022,-55.92652 25.5592,-90.35755 1.4758,-14.36554 0.615,-49.06798 -1.5539,-62.64245 -8.9203,-55.82934 -34.4595,-105.54882 -75.0012,-146.01145 C 947.05629,305.03426 934.90724,295.12029 917.5,283.73402 877.80715,257.77048 830.26731,242.72418 780.36474,240.3309 L 767,239.68994 v -56.50131 -56.5013 l 17.25,0.67707 c 88.59193,3.47724 167.71064,32.95181 234.75,87.45283 21.5564,17.52474 49.1544,47.06902 66.9605,71.68277 74.1778,102.53774 92.1645,233.30026 48.0675,349.44918 -30.823,81.18623 -83.8611,147.98613 -154.528,194.62355 -40.41918,26.67508 -79.07697,43.25846 -122.0957,52.37647 C 833.93911,887.92275 791.45316,893 773.30011,893 H 767 Z M 638,643.34784 c -16.33308,-1.0821 -40.82794,-6.6686 -50.19703,-11.44836 l -3.91798,-1.9988 0.20411,-21.91875 c 0.11226,-12.05532 0.47563,-21.74728 0.8075,-21.53771 0.33187,0.20957 3.60899,2.40034 7.28248,4.86838 7.54275,5.06759 19.35018,9.92327 30.0784,12.36943 10.51731,2.39808 36.01547,2.37883 44.66256,-0.0337 18.97413,-5.29378 30.53458,-16.3411 33.9547,-32.44753 5.33736,-25.13538 -8.45175,-45.97695 -34.92763,-52.79141 -4.82596,-1.24212 -12.67058,-1.77912 -31.19711,-2.13555 L 610,515.79765 V 496.39883 477 h 19.91203 c 13.45126,0 22.42811,-0.48141 27.66656,-1.48369 15.24345,-2.91655 27.00086,-10.7182 32.37079,-21.47969 3.63926,-7.29317 4.18684,-9.86401 4.14688,-19.46933 -0.0969,-23.30249 -13.17198,-36.25595 -38.56464,-38.20598 -18.30889,-1.40604 -44.28145,5.58943 -58.78162,15.83229 l -2.75,1.94259 v -21.99541 -21.99541 l 8.25,-3.18154 c 19.44766,-7.49982 46.32637,-11.2133 66.49928,-9.18735 34.31614,3.44635 56.62599,16.17843 67.85349,38.72352 5.62618,11.29751 7.79069,22.10762 7.00805,35 -1.53076,25.21618 -14.91839,44.16374 -40.11082,56.769 -3.85,1.92638 -8.96342,4.09041 -11.36317,4.80895 l -4.36316,1.30644 9.79585,2.78354 c 28.01558,7.96077 43.75144,22.0779 50.06183,44.91203 2.74736,9.94135 2.51344,30.96233 -0.46029,41.36345 -8.77617,30.69609 -32.89358,50.32808 -70.58067,57.45389 -10.27126,1.94207 -28.64976,3.10913 -38.59039,2.45054 z m 211.5,-0.38752 c -42.83291,-6.67284 -67.25414,-37.64382 -76.20494,-96.64306 -2.56903,-16.93372 -2.57761,-69.66746 -0.014,-86.31726 7.69189,-49.95723 25.05158,-80.26844 54.13877,-94.53003 12.33634,-6.04857 20.94707,-7.8079 38.08022,-7.78048 17.51281,0.028 25.99391,1.82319 39,8.25501 28.89778,14.29063 46.00486,47.54242 51.47564,100.0555 1.52899,14.67649 1.2517,53.56877 -0.48795,68.44062 -5.94027,50.7818 -24.55273,85.34078 -53.87344,100.03036 -5.01284,2.51141 -12.71425,5.47161 -17.11425,6.57821 -9.26376,2.32983 -26.33045,3.26174 -35,1.91113 z m 28.73278,-40.28578 c 10.86983,-5.31811 18.79264,-17.07041 24.1774,-35.86356 9.3576,-32.65861 9.37888,-99.55219 0.0424,-133.31098 -5.04933,-18.25736 -12.87076,-30.1028 -23.23816,-35.19385 -4.98325,-2.44709 -6.86603,-2.80497 -14.71444,-2.79694 -7.78378,0.008 -9.67835,0.3661 -14.0198,2.65019 -10.07621,5.30124 -17.62908,16.03151 -22.76403,32.3406 -10.39204,33.0061 -11.42737,98.95713 -2.13498,136 5.09146,20.29647 14.38457,33.78699 26.04772,37.81267 7.44762,2.57063 19.52095,1.82722 26.60387,-1.63813 z"
         id="path6" />
      <path
         style="fill:#0b5791"
         d="M 767,833.6199 V 774 h 8.75613 c 11.53347,0 31.05085,-2.33256 46.0945,-5.50883 55.04901,-11.62291 105.48057,-39.57054 143.65335,-79.6083 C 1024.9277,626.55595 1050.7657,544.07918 1036.8943,461 1029.9273,419.27284 1010.1306,375.94547 982.2936,341.5 972.13034,328.92402 952.40205,309.31284 940,299.45749 894.67427,263.43915 841.02426,243.24919 782,239.99779 l -15.5,-0.85384 16,0.38399 c 90.09341,2.16213 179.35601,56.51109 224.8582,136.90852 20.844,36.82905 31.7991,74.427 34.1821,117.31354 l 0.6807,12.25 57.1395,9.8e-4 57.1395,9.7e-4 -0.2706,-10.25097 C 1153.6776,399.07797 1112.2434,305.96576 1040.8646,236.5 998.67668,195.44283 948.15647,165.16232 891.84939,147.18418 858.31674,136.47763 830.78307,131.82104 779,128.09869 l -12.5,-0.89855 14.5,0.45926 c 96.37289,3.05238 182.19648,37.03153 251.9447,99.74955 53.5945,48.19252 95.3517,117.46694 113.0403,187.53175 21.8448,86.52728 12.3889,174.58617 -27.5497,256.5593 -38.9792,80.00381 -102.2008,143.85812 -181.9353,183.75597 -43.57615,21.8048 -94.38203,33.82877 -157.75,37.33389 L 767,893.2398 Z M 638,643.34784 c -16.33308,-1.0821 -40.82794,-6.6686 -50.19703,-11.44836 l -3.91798,-1.9988 0.20411,-21.91875 c 0.11226,-12.05532 0.47563,-21.74728 0.8075,-21.53771 0.33187,0.20957 3.60899,2.40034 7.28248,4.86838 7.54275,5.06759 19.35018,9.92327 30.0784,12.36943 10.51731,2.39808 36.01547,2.37883 44.66256,-0.0337 18.97413,-5.29378 30.53458,-16.3411 33.9547,-32.44753 5.33736,-25.13538 -8.45175,-45.97695 -34.92763,-52.79141 -4.82596,-1.24212 -12.67058,-1.77912 -31.19711,-2.13555 L 610,515.79765 V 496.39883 477 h 19.91203 c 13.45126,0 22.42811,-0.48141 27.66656,-1.48369 15.24345,-2.91655 27.00086,-10.7182 32.37079,-21.47969 3.63926,-7.29317 4.18684,-9.86401 4.14688,-19.46933 -0.0969,-23.30249 -13.17198,-36.25595 -38.56464,-38.20598 -18.30889,-1.40604 -44.28145,5.58943 -58.78162,15.83229 l -2.75,1.94259 v -21.99541 -21.99541 l 8.25,-3.18154 c 19.44766,-7.49982 46.32637,-11.2133 66.49928,-9.18735 34.31614,3.44635 56.62599,16.17843 67.85349,38.72352 5.62618,11.29751 7.79069,22.10762 7.00805,35 -1.53076,25.21618 -14.91839,44.16374 -40.11082,56.769 -3.85,1.92638 -8.96342,4.09041 -11.36317,4.80895 l -4.36316,1.30644 9.79585,2.78354 c 28.01558,7.96077 43.75144,22.0779 50.06183,44.91203 2.74736,9.94135 2.51344,30.96233 -0.46029,41.36345 -8.77617,30.69609 -32.89358,50.32808 -70.58067,57.45389 -10.27126,1.94207 -28.64976,3.10913 -38.59039,2.45054 z m 211.5,-0.38752 c -42.83291,-6.67284 -67.25414,-37.64382 -76.20494,-96.64306 -2.56903,-16.93372 -2.57761,-69.66746 -0.014,-86.31726 7.69189,-49.95723 25.05158,-80.26844 54.13877,-94.53003 12.33634,-6.04857 20.94707,-7.8079 38.08022,-7.78048 17.51281,0.028 25.99391,1.82319 39,8.25501 28.89778,14.29063 46.00486,47.54242 51.47564,100.0555 1.52899,14.67649 1.2517,53.56877 -0.48795,68.44062 -5.94027,50.7818 -24.55273,85.34078 -53.87344,100.03036 -5.01284,2.51141 -12.71425,5.47161 -17.11425,6.57821 -9.26376,2.32983 -26.33045,3.26174 -35,1.91113 z m 28.73278,-40.28578 c 10.86983,-5.31811 18.79264,-17.07041 24.1774,-35.86356 9.3576,-32.65861 9.37888,-99.55219 0.0424,-133.31098 -5.04933,-18.25736 -12.87076,-30.1028 -23.23816,-35.19385 -4.98325,-2.44709 -6.86603,-2.80497 -14.71444,-2.79694 -7.78378,0.008 -9.67835,0.3661 -14.0198,2.65019 -10.07621,5.30124 -17.62908,16.03151 -22.76403,32.3406 -10.39204,33.0061 -11.42737,98.95713 -2.13498,136 5.09146,20.29647 14.38457,33.78699 26.04772,37.81267 7.44762,2.57063 19.52095,1.82722 26.60387,-1.63813 z"
         id="path5" />
      <path
         style="fill:#00874a"
         d="M 767,833.6199 V 774 h 8.75613 c 11.53347,0 31.05085,-2.33256 46.0945,-5.50883 55.04901,-11.62291 105.48057,-39.57054 143.65335,-79.6083 C 1024.9277,626.55595 1050.7657,544.07918 1036.8943,461 1029.9273,419.27284 1010.1306,375.94547 982.2936,341.5 972.13034,328.92402 952.40205,309.31284 940,299.45749 894.67427,263.43915 841.02426,243.24919 782,239.99779 l -15.5,-0.85384 16,0.38399 c 90.09341,2.16213 179.35601,56.51109 224.8582,136.90852 20.844,36.82905 31.7991,74.427 34.1821,117.31354 l 0.6807,12.25 57.1395,9.8e-4 57.1395,9.7e-4 -0.2706,-10.25097 C 1153.6776,399.07797 1112.2434,305.96576 1040.8646,236.5 998.67668,195.44283 948.15647,165.16232 891.84939,147.18418 858.31674,136.47763 830.78307,131.82104 779,128.09869 l -12.5,-0.89855 14.5,0.45926 c 96.37289,3.05238 182.19648,37.03153 251.9447,99.74955 53.5945,48.19252 95.3517,117.46694 113.0403,187.53175 21.8448,86.52728 12.3889,174.58617 -27.5497,256.5593 -38.9792,80.00381 -102.2008,143.85812 -181.9353,183.75597 -43.57615,21.8048 -94.38203,33.82877 -157.75,37.33389 L 767,893.2398 Z M 852,642.93318 C 831.38119,640.73166 810.97853,629.89791 799.21825,614.90622 780.67832,591.27202 771.02208,553.46301 771.02102,504.5 c -8.6e-4,-40.20978 5.73118,-72.64947 17.02699,-96.36183 14.99428,-31.47628 37.29843,-47.48609 70.54572,-50.63739 15.82268,-1.49974 39.47394,3.86538 51.60538,11.70631 25.667,16.58938 40.21285,47.32359 45.36872,95.86047 2.03603,19.16696 1.48341,59.61339 -1.03745,75.93244 -7.17578,46.45308 -23.63215,76.69515 -50.05125,91.97979 -7.72772,4.47084 -22.17278,8.89936 -32.61609,9.99935 -5.14967,0.54241 -10.03804,0.93414 -10.86304,0.87052 -0.825,-0.0636 -4.875,-0.47605 -9,-0.91648 z m 26.17572,-39.73695 c 5.33216,-2.62601 12.819,-9.93571 16.5016,-16.11116 5.87919,-9.85899 10.94885,-28.53934 13.4569,-49.58507 1.65559,-13.89255 1.6583,-60.43901 0.004,-74 -4.59465,-37.67119 -13.11078,-57.09562 -28.63853,-65.32159 -4.38635,-2.32371 -6.16593,-2.65062 -14.5,-2.6636 -8.08445,-0.0126 -10.24503,0.35132 -14.5,2.44234 -14.50404,7.12772 -23.59388,25.62674 -28.67663,58.36075 -1.92498,12.39722 -2.20391,18.20944 -2.2163,46.1821 -0.0125,28.21784 0.24959,33.68866 2.2175,46.28742 5.09693,32.63094 14.46286,50.13011 29.87342,55.81505 6.04808,2.23113 20.66868,1.45463 26.47773,-1.40624 z M 628.5,642.37412 c -13.81993,-2.01295 -37.9652,-8.40749 -42.27,-11.19462 -0.97651,-0.63223 -1.2076,-5.84185 -1,-22.54289 l 0.27,-21.72063 3.5,2.66162 c 5.84756,4.44686 21.09834,11.23892 30.56006,13.61017 7.41242,1.85767 11.7592,2.24662 25.43994,2.27636 14.55928,0.0317 17.38215,-0.23942 24,-2.30464 10.64272,-3.32126 16.37557,-6.71771 22.49469,-13.32709 7.88855,-8.52058 9.94816,-14.47088 9.97989,-28.8324 0.0231,-10.46858 -0.21979,-12.02342 -2.70858,-17.33589 -3.82279,-8.15998 -8.22092,-13.35543 -15.0331,-17.75835 -11.94592,-7.72102 -22.27182,-9.73155 -51.9795,-10.12081 L 610.00681,515.5 l 10e-4,-19 0.001,-19 20.74537,-0.10855 c 29.95164,-0.15671 41.7167,-3.3055 52.6315,-14.08625 17.48548,-17.27071 14.1624,-50.52477 -6.15391,-61.58229 -19.20837,-10.45451 -56.52928,-5.90429 -79.51561,9.69466 L 594,413.93973 v -21.87529 -21.87529 l 8.75,-3.18546 c 30.04867,-10.93929 64.32357,-12.5634 90.75,-4.30017 25.61584,8.00977 42.28868,24.39045 48.14003,47.29648 2.22943,8.72746 2.23791,25.46297 0.0172,34 -5.74644,22.09111 -22.65797,39.19073 -47.56314,48.09212 -7.20176,2.57399 -7.3592,2.40208 5.40589,5.9029 14.07823,3.86096 23.74707,9.18504 32.39809,17.83979 8.739,8.74277 12.25244,14.69598 15.25053,25.84067 2.96255,11.01258 2.95292,29.63354 -0.0211,40.82452 -7.97629,30.014 -29.93168,48.88059 -67.12752,57.68367 -6.69061,1.58346 -12.75739,2.07722 -28.5,2.31955 -11,0.16933 -21.35,0.11124 -23,-0.1291 z"
         id="path4" />
      <path
         style="fill:#00477c"
         d="M 852,642.93318 C 831.38119,640.73166 810.97853,629.89791 799.21825,614.90622 780.67832,591.27202 771.02208,553.46301 771.02102,504.5 c -8.6e-4,-40.20978 5.73118,-72.64947 17.02699,-96.36183 14.99428,-31.47628 37.29843,-47.48609 70.54572,-50.63739 15.82268,-1.49974 39.47394,3.86538 51.60538,11.70631 25.667,16.58938 40.21285,47.32359 45.36872,95.86047 2.03603,19.16696 1.48341,59.61339 -1.03745,75.93244 -7.17578,46.45308 -23.63215,76.69515 -50.05125,91.97979 -7.72772,4.47084 -22.17278,8.89936 -32.61609,9.99935 -5.14967,0.54241 -10.03804,0.93414 -10.86304,0.87052 -0.825,-0.0636 -4.875,-0.47605 -9,-0.91648 z m 26.17572,-39.73695 c 5.33216,-2.62601 12.819,-9.93571 16.5016,-16.11116 5.87919,-9.85899 10.94885,-28.53934 13.4569,-49.58507 1.65559,-13.89255 1.6583,-60.43901 0.004,-74 -4.59465,-37.67119 -13.11078,-57.09562 -28.63853,-65.32159 -4.38635,-2.32371 -6.16593,-2.65062 -14.5,-2.6636 -8.08445,-0.0126 -10.24503,0.35132 -14.5,2.44234 -14.50404,7.12772 -23.59388,25.62674 -28.67663,58.36075 -1.92498,12.39722 -2.20391,18.20944 -2.2163,46.1821 -0.0125,28.21784 0.24959,33.68866 2.2175,46.28742 5.09693,32.63094 14.46286,50.13011 29.87342,55.81505 6.04808,2.23113 20.66868,1.45463 26.47773,-1.40624 z M 628.5,642.37412 c -13.81993,-2.01295 -37.9652,-8.40749 -42.27,-11.19462 -0.97651,-0.63223 -1.2076,-5.84185 -1,-22.54289 l 0.27,-21.72063 3.5,2.66162 c 5.84756,4.44686 21.09834,11.23892 30.56006,13.61017 7.41242,1.85767 11.7592,2.24662 25.43994,2.27636 14.55928,0.0317 17.38215,-0.23942 24,-2.30464 10.64272,-3.32126 16.37557,-6.71771 22.49469,-13.32709 7.88855,-8.52058 9.94816,-14.47088 9.97989,-28.8324 0.0231,-10.46858 -0.21979,-12.02342 -2.70858,-17.33589 -3.82279,-8.15998 -8.22092,-13.35543 -15.0331,-17.75835 -11.94592,-7.72102 -22.27182,-9.73155 -51.9795,-10.12081 L 610.00681,515.5 l 10e-4,-19 0.001,-19 20.74537,-0.10855 c 29.95164,-0.15671 41.7167,-3.3055 52.6315,-14.08625 17.48548,-17.27071 14.1624,-50.52477 -6.15391,-61.58229 -19.20837,-10.45451 -56.52928,-5.90429 -79.51561,9.69466 L 594,413.93973 v -21.87529 -21.87529 l 8.75,-3.18546 c 30.04867,-10.93929 64.32357,-12.5634 90.75,-4.30017 25.61584,8.00977 42.28868,24.39045 48.14003,47.29648 2.22943,8.72746 2.23791,25.46297 0.0172,34 -5.74644,22.09111 -22.65797,39.19073 -47.56314,48.09212 -7.20176,2.57399 -7.3592,2.40208 5.40589,5.9029 14.07823,3.86096 23.74707,9.18504 32.39809,17.83979 8.739,8.74277 12.25244,14.69598 15.25053,25.84067 2.96255,11.01258 2.95292,29.63354 -0.0211,40.82452 -7.97629,30.014 -29.93168,48.88059 -67.12752,57.68367 -6.69061,1.58346 -12.75739,2.07722 -28.5,2.31955 -11,0.16933 -21.35,0.11124 -23,-0.1291 z"
         id="path3" />
      <path
         style="fill:#002162"
         d="m 623.92846,641.47 c -10.77474,-1.67976 -22.88314,-4.75428 -31.9292,-8.10734 L 585,630.76828 v -21.86397 -21.86397 l 6.92618,4.48053 c 14.63897,9.4699 28.69445,13.44721 51.07382,14.45247 l 15.5,0.69625 -12.63953,0.1652 c -19.85275,0.25949 -38.6061,-4.36555 -51.59067,-12.72355 -3.17339,-2.04267 -6.3323,-4.05489 -7.0198,-4.47161 -0.98395,-0.5964 -1.25,3.59545 -1.25,19.69501 v 20.45268 l 6.25,2.49617 c 15.46848,6.1779 36.22138,9.71651 56.98453,9.71651 22.69537,0 41.4962,-4.22177 59.26547,-13.3082 8.16739,-4.17645 11.5701,-6.67845 18.56757,-13.65268 12.46649,-12.42509 19.09243,-26.18974 20.91236,-43.44305 0.69586,-6.59699 0.75806,-6.73808 0.88429,-2.00603 0.0747,2.79952 -0.75109,8.55768 -1.83505,12.79591 -8.01608,31.34257 -33.60136,51.95901 -72.79784,58.65998 -13.51373,2.31029 -36.93721,2.50776 -50.30287,0.42407 z m 217.4201,-0.39747 C 806.36027,631.61959 785.9554,606.79092 776.62158,562.31267 772.49071,542.62791 771.5,531.25131 771.5,503.5 c 0,-27.48258 0.95288,-38.69938 5.01273,-59.0069 10.54829,-52.76302 37.94394,-82.48906 79.63782,-86.41213 17.98863,-1.69259 33.26775,0.94823 48.38749,8.36321 29.86785,14.64772 46.86477,49.34812 51.56151,105.26643 1.41636,16.8629 0.60259,53.73254 -1.49722,67.83472 -8.2658,55.51257 -28.9849,87.44639 -64.60233,99.56992 -8.8813,3.02304 -10.54202,3.25499 -25.5,3.56152 -13.39383,0.27449 -17.16487,0.0132 -23.15144,-1.60424 z m 45.62407,-2.02524 C 900.41321,635.1304 909.40992,629.68123 920,619.0431 936.68135,602.28607 946.68667,579.99571 952.4339,546.78522 957.68995,516.41303 956.8509,468.82891 950.53334,439 946.31166,419.06694 938.28362,400.00059 928.93147,387.6962 919.42978,375.19505 904.4447,365.32733 889,361.40121 c -13.28613,-3.37741 -35.78628,-3.31445 -47.87395,0.13395 -30.58738,8.72605 -51.03651,33.3049 -61.6297,74.07586 -5.14112,19.7871 -6.90946,37.30001 -6.90548,68.38898 0.003,24.48686 0.31597,30.49941 2.22162,42.69915 7.31131,46.80596 22.52861,73.43658 49.74114,87.04815 13.47361,6.73943 21.12275,8.23566 39.94637,7.81383 11.71357,-0.2625 16.63722,-0.81327 22.47263,-2.51384 z M 848.18879,603.93648 C 828.69702,594.19632 819.43214,565.57183 818.26991,511.5 816.87735,446.71193 827.57721,408.36267 850.20057,397.05764 855.31481,394.50202 857.49482,394 863.47822,394 c 21.5753,0 34.21719,13.40743 41.48769,44 1.11104,4.675 1.9918,9.4 1.95723,10.5 -0.0346,1.1 -1.11123,-2.5 -2.3926,-8 -4.49625,-19.29924 -9.43019,-29.46577 -18.18188,-37.46432 -7.00205,-6.39948 -13.42496,-8.4619 -24.3779,-7.82785 -6.19201,0.35845 -8.75351,1.03699 -13.08498,3.46618 -13.79053,7.73405 -22.65021,27.03924 -27.56216,60.05777 -2.24857,15.11502 -2.56429,69.49497 -0.48926,84.26822 5.77959,41.14792 16.79407,60.09637 36.62698,63.01021 l 5.03866,0.74028 -4.09028,0.12475 c -2.7547,0.084 -6.09208,-0.87555 -10.22093,-2.93876 z m 21.07971,2.02615 c 25.80366,-4.34054 38.6275,-34.64872 40.39167,-95.46263 0.50975,-17.57209 0.0857,-28.41558 -2.13105,-54.5 -0.42142,-4.95868 -0.38124,-5.10631 0.40824,-1.5 1.94491,8.88422 3.33408,37.50354 2.74249,56.5 -1.73798,55.8075 -12.76764,85.76601 -34.63508,94.07499 -2.78642,1.05875 -6.5239,1.87208 -8.3055,1.80739 -2.64499,-0.096 -2.36444,-0.26478 1.52923,-0.91975 z M 665,604.40141 c 15.00538,-3.22678 27.329,-12.2304 33.27673,-24.31196 2.74785,-5.58169 3.21777,-7.71262 3.5556,-16.12353 0.81517,-20.29529 -7.27979,-33.85318 -25.01349,-41.89402 -11.17528,-5.06712 -20.62073,-6.43064 -45.06454,-6.50539 L 610.00861,515.5 610.0043,496.87259 610,478.24517 l 21.25,-0.53235 c 23.62815,-0.59193 31.54241,-1.87934 41.44467,-6.7418 11.9725,-5.87904 19.22079,-15.60938 21.49144,-28.85075 3.01847,-17.60238 -4.45447,-34.2132 -18.47808,-41.07299 -7.61053,-3.72277 -14.34887,-5.04959 -25.59452,-5.03973 -16.40764,0.0144 -33.6535,4.56839 -47.7742,12.61542 C 598.11493,411.03034 594.51043,413 594.32931,413 594.14819,413 594,403.42214 594,391.71587 v -21.28412 l 6.75,-2.59838 C 650.83689,348.55269 708.65186,357.24844 730.93668,387.41429 739.7249,399.31046 743,410.08935 743,427.1166 c 0,9.23061 -0.48377,13.32706 -2.32432,19.68163 -4.21588,14.55552 -13.49372,26.55372 -27.70903,35.83357 -7.35279,4.79995 -23.64692,12.02127 -24.71491,10.95328 -0.2959,-0.2959 0.31391,-0.80184 1.35513,-1.1243 26.08536,-8.07864 45.10135,-26.10958 50.82306,-48.19038 1.99711,-7.70709 2.03909,-25.65596 0.0794,-33.9666 -3.04363,-12.90767 -10.61626,-25.18343 -20.2573,-32.83848 C 693.53715,356.25351 644.2952,352.58164 601.75,368.62888 l -6.75,2.54597 v 19.91257 C 595,402.03934 595.19045,411 595.42322,411 c 0.23276,0 3.72026,-1.76945 7.75,-3.9321 C 618.78895,398.68732 633.37814,395 650.92089,395 c 16.2137,0 27.39149,4.10462 35.38296,12.99305 13.9542,15.52043 12.28759,43.299 -3.4465,57.44529 -10.72587,9.64349 -21.91766,12.58423 -50.60735,13.29755 L 611,479.26423 v 17.22488 17.22489 l 22.75,0.57841 c 26.02491,0.66168 34.74954,2.23361 46.4122,8.36216 8.18265,4.29987 16.01939,12.38761 19.714,20.34543 2.30164,4.95748 2.55698,6.73778 2.58866,18.04854 0.0351,12.52762 0.0288,12.56126 -3.7372,20.18468 -4.25944,8.62213 -9.94382,14.31623 -18.72766,18.75966 -6.51188,3.29412 -15.33594,6.04727 -18.9315,5.90671 -1.41268,-0.0552 0.3565,-0.72941 3.9315,-1.49818 z m 83.97573,-40.98474 c -0.10962,-4.1394 -1.34426,-13.20573 -2.64415,-19.41667 -5.03101,-24.03855 -21.93812,-38.70787 -54.18252,-47.01105 -2.39302,-0.61622 -4.17682,-1.29453 -3.964,-1.50735 0.76272,-0.76271 15.7075,3.56179 22.92938,6.63498 17.69058,7.52802 29.46771,19.52861 34.72453,35.38342 2.05195,6.18879 4.76353,25.23083 3.73879,26.25558 -0.31777,0.31776 -0.58868,0.16525 -0.60203,-0.33891 z"
         id="path2" />
    </g>
  </g>
</svg>
